<svg xmlns="http://www.w3.org/2000/svg" width="900" height="1200" viewBox="0 0 900 1200">
  <defs>
    <marker id="tip" markerWidth="9" markerHeight="9" refX="6" refY="3" orient="auto"><path d="M0,0 L7,3 L0,6 Z" fill="#5FB0B7"/></marker>
    <filter id="glow" x="-60%" y="-60%" width="220%" height="220%"><feGaussianBlur stdDeviation="5" result="b"/><feMerge><feMergeNode in="b"/><feMergeNode in="SourceGraphic"/></feMerge></filter>

    <!-- copper rust blotches -->
    <filter id="rustCopper" x="0" y="0" width="100%" height="100%">
      <feTurbulence type="fractalNoise" baseFrequency="0.010 0.013" numOctaves="5" seed="11" stitchTiles="stitch" result="t"/>
      <feComponentTransfer in="t" result="c"><feFuncA type="discrete" tableValues="0 0 0 0.25 0.55 0.85 1"/></feComponentTransfer>
      <feFlood flood-color="#8a4d25" result="col"/>
      <feComposite in="col" in2="c" operator="in"/>
    </filter>
    <!-- brighter copper highlights -->
    <filter id="rustHi" x="0" y="0" width="100%" height="100%">
      <feTurbulence type="fractalNoise" baseFrequency="0.018 0.02" numOctaves="4" seed="3" stitchTiles="stitch" result="t"/>
      <feComponentTransfer in="t" result="c"><feFuncA type="discrete" tableValues="0 0 0 0 0 0.4 0.8"/></feComponentTransfer>
      <feFlood flood-color="#b9702f" result="col"/>
      <feComposite in="col" in2="c" operator="in"/>
    </filter>
    <!-- verdigris patina specks (teal-green) -->
    <filter id="patina" x="0" y="0" width="100%" height="100%">
      <feTurbulence type="turbulence" baseFrequency="0.03 0.035" numOctaves="3" seed="23" stitchTiles="stitch" result="t"/>
      <feComponentTransfer in="t" result="c"><feFuncA type="discrete" tableValues="0 0 0 0 0 0 0.5 0.8"/></feComponentTransfer>
      <feFlood flood-color="#3f7d72" result="col"/>
      <feComposite in="col" in2="c" operator="in"/>
    </filter>
    <!-- fine grain -->
    <filter id="grain" x="0" y="0" width="100%" height="100%">
      <feTurbulence type="fractalNoise" baseFrequency="0.9" numOctaves="2" seed="7" result="t"/>
      <feColorMatrix in="t" type="matrix" values="0 0 0 0 0  0 0 0 0 0  0 0 0 0 0  0 0 0 0.04 0"/>
    </filter>
    <radialGradient id="vig" cx="42%" cy="34%" r="80%">
      <stop offset="0%" stop-color="#000000" stop-opacity="0"/>
      <stop offset="100%" stop-color="#000000" stop-opacity="0.62"/>
    </radialGradient>
    <style>
      .h  { font-family:'Bahnschrift','DIN',sans-serif; font-weight:700; }
      .hl { font-family:'Bahnschrift','DIN',sans-serif; font-weight:300; }
      .m  { font-family:'Cascadia Code','Consolas',monospace; }
      .slab { font-family:'Rockwell Nova','Rockwell',serif; font-weight:700; }
    </style>
  </defs>

  <!-- rusted copper background stack -->
  <rect width="900" height="1200" fill="#171311"/>
  <rect width="900" height="1200" filter="url(#rustCopper)" opacity="0.85"/>
  <rect width="900" height="1200" filter="url(#rustHi)" opacity="0.55"/>
  <rect width="900" height="1200" filter="url(#patina)" opacity="0.45"/>
  <rect width="900" height="1200" fill="url(#vig)"/>
  <rect width="900" height="1200" filter="url(#grain)"/>
  <!-- contrast scrim so text/nodes stay legible -->
  <rect width="900" height="1200" fill="#0d0b0a" opacity="0.30"/>
  <rect x="0" y="0" width="10" height="1200" fill="#E08A3C"/>

  <!-- monogram -->
  <g transform="translate(70,78)">
    <polygon points="0,-26 22,-13 22,13 0,26 -22,13 -22,-13" fill="#0d0b0a" stroke="#E08A3C" stroke-width="3"/>
    <text x="0" y="8" text-anchor="middle" class="h" font-size="24" fill="#EDEAE3" letter-spacing="1">AC</text>
  </g>
  <text x="108" y="66" class="m" font-size="15" fill="#7FD0C8" letter-spacing="3">NETOPS · SRE</text>
  <text x="108" y="90" class="m" font-size="13" fill="#b9a290" letter-spacing="2">FIELD NOTES /// no.01</text>

  <!-- headline -->
  <text x="64" y="188" class="slab" font-size="64" fill="#F3A65A" letter-spacing="0">Make-before-</text>
  <text x="64" y="258" class="slab" font-size="64" fill="#F3A65A" letter-spacing="0">break</text>
  <text x="68" y="312" class="hl" font-size="34" fill="#E6DED5" letter-spacing="2">Drain the node — then reboot.</text>

  <!-- cloud -->
  <g transform="translate(450,415)">
    <path d="M-95,18 a30,30 0 0,1 8,-58 a40,40 0 0,1 74,-18 a34,34 0 0,1 58,16 a28,28 0 0,1 6,60 Z" fill="#0d0b0a" stroke="#7FD0C8" stroke-width="3"/>
    <text x="0" y="8" text-anchor="middle" class="h" font-size="26" fill="#EDEAE3" letter-spacing="2">INTERNET</text>
  </g>

  <line x1="378" y1="452" x2="250" y2="612" stroke="#F3A65A" stroke-width="4" stroke-dasharray="9 8"/>
  <line x1="522" y1="452" x2="650" y2="612" stroke="#7FD0C8" stroke-width="7" filter="url(#glow)"/>

  <g transform="translate(235,672)" text-anchor="middle">
    <polygon points="-72,0 -36,-62 36,-62 72,0 36,62 -36,62" fill="#0d0b0a" stroke="#F3A65A" stroke-width="4"/>
    <text x="0" y="-6" class="h" font-size="30" fill="#F3A65A" letter-spacing="1">PE1</text>
    <text x="0" y="24" class="m" font-size="15" fill="#F3A65A" letter-spacing="2">DRAINING</text>
  </g>
  <text x="235" y="585" text-anchor="middle" class="m" font-size="14" fill="#F3A65A" letter-spacing="1">overload-bit + graceful-shutdown</text>

  <g transform="translate(665,672)" text-anchor="middle">
    <polygon points="-72,0 -36,-62 36,-62 72,0 36,62 -36,62" fill="#0d0b0a" stroke="#7FD0C8" stroke-width="4"/>
    <text x="0" y="-6" class="h" font-size="30" fill="#7FD0C8" letter-spacing="1">PE2</text>
    <text x="0" y="24" class="m" font-size="15" fill="#7FD0C8" letter-spacing="2">CARRYING</text>
  </g>
  <text x="665" y="585" text-anchor="middle" class="m" font-size="14" fill="#7FD0C8" letter-spacing="1">redundant path = zero impact</text>

  <line x1="235" y1="734" x2="300" y2="905" stroke="#F3A65A" stroke-width="4" stroke-dasharray="9 8"/>
  <line x1="320" y1="720" x2="600" y2="905" stroke="#F3A65A" stroke-width="3" stroke-dasharray="5 8" opacity="0.4"/>
  <line x1="665" y1="734" x2="612" y2="905" stroke="#7FD0C8" stroke-width="7" marker-end="url(#tip)" filter="url(#glow)"/>
  <line x1="585" y1="720" x2="300" y2="905" stroke="#7FD0C8" stroke-width="7" marker-end="url(#tip)" filter="url(#glow)"/>

  <g text-anchor="middle">
    <circle cx="285" cy="952" r="48" fill="#0d0b0a" stroke="#D8CFC4" stroke-width="3"/>
    <text x="285" y="960" class="h" font-size="24" fill="#EDEAE3">CE1</text>
    <circle cx="615" cy="952" r="48" fill="#0d0b0a" stroke="#D8CFC4" stroke-width="3"/>
    <text x="615" y="960" class="h" font-size="24" fill="#EDEAE3">CE2</text>
    <text x="450" y="1038" class="hl" font-size="22" fill="#C9BFB3" letter-spacing="1">customers — traffic never stops</text>
  </g>

  <rect x="64" y="1078" width="772" height="92" rx="6" fill="#0d0b0a" opacity="0.85" stroke="#7FD0C8" stroke-width="1.5"/>
  <text x="86" y="1118" class="m" font-size="18" fill="#b9a290">ce1 → ce2  while PE1 reboots</text>
  <text x="86" y="1150" class="m" font-size="26" fill="#7FD0C8">0% packet loss — proven, not promised</text>
  <text x="820" y="1192" text-anchor="end" class="m" font-size="13" fill="#9c8c7c" letter-spacing="2">ALEKSEI CHEKHUN · netops.engineer</text>
</svg>
